<svg width="170" height="170" viewBox="0 0 170 170" fill="none" xmlns="http://www.w3.org/2000/svg">
<g id="icon_">
<g id="Group 6">
<path id="Vector" d="M84.9999 25C77.375 25 71.5875 30.5249 69.625 37.55C67.1312 38.3875 64.725 39.4188 62.3938 40.6375C56.0313 37.0001 47.9939 37.1625 42.5812 42.5812C37.1625 47.9936 36.9999 56.031 40.6375 62.3938C39.4188 64.725 38.3876 67.1312 37.55 69.625C30.5251 71.5875 25 77.375 25 84.9999C25 92.6248 30.5249 98.4123 37.55 100.375C38.3875 102.869 39.4188 105.275 40.6375 107.606C37.0001 113.969 37.1625 122.006 42.5812 127.419C47.9936 132.837 56.031 133 62.3938 129.362C64.725 130.581 67.1312 131.612 69.625 132.45C71.5875 139.475 77.375 145 84.9999 145C86.8436 145 88.3311 143.506 88.3311 141.669V138.331H98.9185C100.306 142.2 104.019 145 108.331 145C113.818 145 118.331 140.481 118.331 135C118.331 129.519 113.818 125 108.331 125C104.019 125 100.306 127.8 98.9185 131.669H88.3311V121.669H101.668C102.55 121.669 103.4 121.313 104.025 120.688C104.65 120.063 105 119.219 105 118.331C105 117.45 104.65 116.6 104.025 115.975C103.4 115.35 102.55 115 101.668 115H88.3311C88.3311 113.156 86.8436 111.669 84.9999 111.669C70.2312 111.669 58.3313 99.769 58.3313 85.0003C58.3313 70.2316 70.2312 58.3317 84.9999 58.3317C86.8436 58.3317 88.3311 56.8442 88.3311 55.0005H101.668C102.55 55.0005 103.4 54.6505 104.025 54.0255C104.65 53.4005 105 52.5505 105 51.6692C105 50.7817 104.65 49.938 104.025 49.3129C103.4 48.6879 102.55 48.3317 101.668 48.3317H88.3311V38.3317H98.9185C100.306 42.2005 104.019 45.0005 108.331 45.0005C113.818 45.0005 118.331 40.4818 118.331 35.0005C118.331 29.5193 113.818 25.0006 108.331 25.0006C104.019 25.0006 100.306 27.8006 98.9185 31.6694H88.3311V28.3319C88.3311 26.4945 86.8436 25 84.9999 25Z" fill="#1E1E1E"/>
<path id="Vector_2" d="M121.668 48.3311C118.025 48.3311 115 51.356 115 54.9998C115 57.431 116.35 59.5935 118.331 60.7561V68.3311H88.3311C88.3311 66.4937 86.8436 64.9999 84.9999 64.9999C73.9938 64.9999 65.0001 73.9936 65.0001 84.9998C65.0001 96.0059 73.9938 105 84.9999 105C86.8436 105 88.3311 103.506 88.3311 101.668H118.331V109.243C116.35 110.406 115 112.568 115 115C115 118.643 118.025 121.668 121.668 121.668C125.306 121.668 128.331 118.644 128.331 115C128.331 112.569 126.981 110.406 125 109.243V98.331C125 96.4936 123.506 94.9999 121.669 94.9999H88.3313V88.3311H125.587C126.975 92.1999 130.681 94.9999 134.999 94.9999C140.481 94.9999 144.999 90.4812 144.999 84.9999C144.999 79.5187 140.481 75 134.999 75C130.681 75 126.975 77.8 125.587 81.6688H88.3313V75H121.669C123.506 75 125 73.5063 125 71.6688V60.7564C126.981 59.5939 128.331 57.4315 128.331 55.0001C128.331 51.3565 125.306 48.3311 121.668 48.3311Z" fill="#2779E5"/>
</g>
</g>
</svg>
