<svg width="170" height="170" viewBox="0 0 170 170" fill="none" xmlns="http://www.w3.org/2000/svg">
<g id="icon_">
<path id="Vector" d="M81.3319 61.7048C81.3319 59.6812 82.9766 58.0363 85.0004 58.0363C87.0241 58.0363 88.6689 59.6811 88.6689 61.7048V83.1833L98.1349 90.5442C99.7366 91.791 100.029 94.1072 98.7823 95.7088C97.5355 97.3105 95.2194 97.6031 93.6177 96.3562L82.7417 87.8972C81.8881 87.2162 81.3319 86.1709 81.3319 84.9911L81.3319 61.7048ZM121.834 88.6597C119.8 88.6597 118.151 87.01 118.151 84.9768C118.151 82.9437 119.8 81.294 121.834 81.294H126.571C125.689 71.2476 121.244 62.218 114.511 55.4857C107.773 48.7481 98.7385 44.3028 88.6831 43.4253V48.1488C88.6831 50.182 87.0334 51.8317 85.0002 51.8317C82.967 51.8317 81.3174 50.182 81.3174 48.1488V43.4253C71.2614 44.3028 62.2266 48.7529 55.4894 55.4857C48.7567 62.2232 44.3113 71.2484 43.429 81.294H48.1669C50.2001 81.294 51.8498 82.9437 51.8498 84.9768C51.8498 87.01 50.2001 88.6597 48.1669 88.6597H43.4243C44.3018 98.7204 48.7471 107.76 55.4894 114.502C62.227 121.24 71.2619 125.685 81.3174 126.563V121.806C81.3174 119.773 82.967 118.123 85.0002 118.123C87.0334 118.123 88.6831 119.773 88.6831 121.806V126.563C98.7342 125.685 107.769 121.24 114.506 114.498C121.248 107.755 125.694 98.7165 126.571 88.6549H121.829L121.834 88.6597Z" fill="#1E1E1E"/>
<path id="Vector_2" d="M85 32.361C87.3546 32.3946 89.5364 32.5097 91.8766 32.807C96.2261 33.3489 97.7702 27.0812 93.4255 25.633C91.2101 25.0767 87.3306 25.0048 85 25C68.432 25 53.4317 31.7184 42.5746 42.5746C31.7175 53.4309 25 68.4308 25 85C25 101.568 31.7184 116.568 42.5746 127.425C53.4309 138.282 68.4308 145 85 145C101.569 145 116.563 138.282 127.425 127.425C138.282 116.569 145 101.569 145 85C144.986 84.0937 144.707 83.1106 144.055 82.4632C141.768 79.9504 137.548 81.5905 137.634 85C137.634 99.5301 131.741 112.694 122.217 122.212C112.693 131.735 99.5338 137.629 85.0049 137.629C70.4748 137.629 57.311 131.736 47.7932 122.212C38.2696 112.688 32.3755 99.5289 32.3755 85C32.3755 70.4699 38.2691 57.3061 47.7932 47.7883C57.6957 37.8859 71.0026 32.3706 85.0049 32.3706L85 32.361ZM133.625 64.8169C135.222 68.8066 141.748 67.133 140.54 62.304C139.653 59.8727 138.224 57.1873 136.934 54.9335C134.737 51.0876 128.604 53.8354 130.369 58.2423C131.515 60.5106 132.627 62.4288 133.625 64.8169ZM117.019 43.2181C118.151 44.0909 119.666 44.2107 120.922 43.5777C123.354 42.3645 123.622 39.0029 121.493 37.3677C119.369 35.7756 117.273 34.3369 114.971 33.0087C111.26 30.889 107.51 35.7852 110.545 38.8207C110.799 39.0557 111.005 39.2283 111.303 39.3962C113.331 40.5854 115.139 41.8082 117.019 43.2181Z" fill="#2779E5"/>
</g>
</svg>
