<svg width="170" height="170" viewBox="0 0 170 170" fill="none" xmlns="http://www.w3.org/2000/svg">
<g id="icon_">
<g id="Group 7">
<path id="Vector" d="M85.0001 57.5369C79.0644 57.5369 74.2375 62.3636 74.2375 68.2994C74.2375 74.2352 79.0643 79.062 85.0001 79.062C90.9359 79.062 95.768 74.2352 95.768 68.2994C95.768 62.3636 90.9359 57.5369 85.0001 57.5369Z" fill="#2779E5"/>
<path id="Vector_2" d="M136.429 35H33.5714C28.8571 35 25 38.8571 25 43.5714V93.0279C25 97.7422 28.8571 101.599 33.5714 101.599H136.429C141.143 101.599 145 97.7422 145 93.0279V43.5714C145 38.8571 141.143 35 136.429 35ZM54.0523 79.6304H41.6077C39.2398 79.6304 37.322 77.7126 37.322 75.3447C37.322 72.9768 39.2398 71.059 41.6077 71.059H54.0523C56.4203 71.059 58.3381 72.9768 58.3381 75.3447C58.3381 77.7126 56.4256 79.6304 54.0523 79.6304ZM54.0523 65.5417H41.6077C39.2398 65.5417 37.322 63.6239 37.322 61.256C37.322 58.8881 39.2398 56.9703 41.6077 56.9703H54.0523C56.4203 56.9703 58.3381 58.8881 58.3381 61.256C58.3381 63.6186 56.4256 65.5417 54.0523 65.5417ZM85 87.6341C74.3393 87.6341 65.6656 78.9609 65.6656 68.2997C65.6656 57.6384 74.3388 48.9653 85 48.9653C95.6612 48.9653 104.34 57.6384 104.34 68.2997C104.34 78.9609 95.6614 87.6341 85 87.6341ZM128.393 79.6305H115.949C113.581 79.6305 111.663 77.7127 111.663 75.3448C111.663 72.9769 113.581 71.0591 115.949 71.0591H128.393C130.761 71.0591 132.679 72.9769 132.679 75.3448C132.679 77.7127 130.761 79.6305 128.393 79.6305ZM128.393 65.5419H115.949C113.581 65.5419 111.663 63.624 111.663 61.2561C111.663 58.8882 113.581 56.9704 115.949 56.9704H128.393C130.761 56.9704 132.679 58.8882 132.679 61.2561C132.679 63.6187 130.761 65.5419 128.393 65.5419Z" fill="#1E1E1E"/>
<path id="Vector_3" d="M33.5714 110.171C30.4321 110.171 27.534 109.26 25 107.787V110.171C25 114.885 28.8571 118.742 33.5714 118.742H136.429C141.143 118.742 145 114.885 145 110.171V107.787C142.466 109.26 139.568 110.171 136.429 110.171H33.5714Z" fill="#2779E5"/>
<path id="Vector_4" d="M33.5714 127.255C30.4321 127.255 27.534 126.344 25 124.871V127.255C25 131.969 28.8571 135.826 33.5714 135.826H136.429C141.143 135.826 145 131.969 145 127.255V124.871C142.466 126.344 139.568 127.255 136.429 127.255H33.5714Z" fill="#2779E5"/>
</g>
</g>
</svg>
