<svg width="170" height="170" viewBox="0 0 170 170" fill="none" xmlns="http://www.w3.org/2000/svg">
<g id="icon_">
<g id="Group">
<path id="Vector" d="M56.3808 144.861C73.686 144.861 87.7615 130.785 87.7615 113.48C87.7615 96.1749 73.6859 82.0994 56.3808 82.0994C39.0755 82.0994 25 96.175 25 113.48C25.0066 130.785 39.0823 144.861 56.3808 144.861ZM37.7883 113.412C39.0951 111.847 41.4233 111.628 42.9821 112.935L52.6932 121.034C53.1708 121.438 53.8341 121.392 54.2056 120.981L69.946 103.555C71.3058 102.042 73.6474 101.923 75.1597 103.303C76.672 104.676 76.7915 107.004 75.4118 108.516L59.6978 125.942C58.0196 127.793 55.7444 128.741 53.4493 128.741C51.4992 128.741 49.5423 128.065 47.9504 126.685L38.2858 118.619C36.6872 117.319 36.4816 114.971 37.7883 113.412Z" fill="#2779E5"/>
<path id="Vector_2" d="M139.66 43.4999L100.451 26.7114C98.2426 25.7629 95.7288 25.7629 93.5265 26.7114L54.3379 43.5066C51.0942 44.8995 49.0049 48.0569 49.0049 51.5924V75.4659C51.3995 75.0082 53.8604 74.7362 56.3943 74.7362C77.7733 74.7362 95.1584 92.1213 95.1584 113.5C95.1584 122.044 92.3592 129.924 87.6496 136.324L92.2529 139.276C95.1383 141.127 98.8728 141.127 101.765 139.276L127.257 122.892C138.361 115.742 145 103.604 145 90.3891L144.987 51.5842C144.987 48.0488 142.884 44.8929 139.66 43.4999Z" fill="#1E1E1E"/>
</g>
</g>
</svg>
