<svg width="90" height="90" viewBox="0 0 90 90" fill="none" xmlns="http://www.w3.org/2000/svg">
<g id="icon_warning">
<path id="Vector" d="M83.6178 65.5289L53.2452 14.7115C51.4784 11.7668 48.3654 10 45 10C41.6346 10 38.5216 11.7668 36.7548 14.6274L6.38222 65.5289C4.61539 68.4736 4.61539 72.0914 6.29808 75.1202C7.98077 78.149 11.0938 80 14.6274 80H75.3726C78.8221 80 81.9351 78.149 83.7019 75.1202C85.3846 72.0914 85.3846 68.4736 83.6178 65.5289ZM41.1298 34.2308C41.1298 32.1274 42.8966 30.3606 45 30.3606C47.1034 30.3606 48.8702 32.1274 48.8702 34.2308V50.3005C48.8702 52.4039 47.1034 54.1707 45 54.1707C42.8966 54.1707 41.1298 52.4039 41.1298 50.3005V34.2308ZM45 67.6322C42.3918 67.6322 40.2885 65.5289 40.2885 62.9207C40.2885 60.3125 42.3918 58.2091 45 58.2091C47.6082 58.2091 49.7115 60.3125 49.7115 62.9207C49.7115 65.5289 47.6082 67.6322 45 67.6322Z" fill="white"/>
</g>
</svg>
