<svg width="101" height="26" viewBox="0 0 101 26" fill="none" xmlns="http://www.w3.org/2000/svg">
<g id="Avito_logo" clip-path="url(#clip0_34_562)">
<g id="Clip path group">
<mask id="mask0_34_562" style="mask-type:luminance" maskUnits="userSpaceOnUse" x="7" y="3" width="86" height="23">
<g id="clip0_1542_6">
<path id="Vector" d="M93 3.76074H7V25.7182H93V3.76074Z" fill="white"/>
</g>
</mask>
<g mask="url(#mask0_34_562)">
<g id="Group">
<path id="Vector_2" d="M39.8735 4.27686L32.4539 23.7357H36.4412L37.981 19.6716H45.8585L47.391 23.7357H51.348L43.956 4.27686H39.8735ZM39.3321 16.1004L41.928 9.25306L44.5093 16.1004H39.3321Z" fill="black"/>
<path id="Vector_3" d="M85.9433 9.81982C84.548 9.81982 83.1843 10.2351 82.0244 11.013C80.8645 11.791 79.9607 12.8968 79.4271 14.1904C78.8929 15.4841 78.7536 16.9076 79.0253 18.281C79.2976 19.6544 79.9694 20.916 80.956 21.9061C81.9421 22.8962 83.1987 23.5706 84.567 23.8438C85.9352 24.1169 87.3536 23.9767 88.6425 23.4408C89.9307 22.905 91.0325 21.9975 91.8073 20.8332C92.5827 19.669 92.996 18.3001 92.996 16.8998C92.996 15.0221 92.2529 13.2213 90.9306 11.8935C89.6078 10.5657 87.8135 9.81982 85.9433 9.81982ZM85.9433 20.3497C85.2635 20.3497 84.5992 20.1474 84.0345 19.7685C83.4692 19.3895 83.0289 18.8508 82.7687 18.2206C82.5085 17.5904 82.4406 16.8969 82.5735 16.2279C82.7059 15.5589 83.0329 14.9443 83.5135 14.462C83.9942 13.9796 84.6061 13.6511 85.2727 13.518C85.9393 13.385 86.63 13.4533 87.2581 13.7143C87.8855 13.9753 88.4226 14.4174 88.8002 14.9846C89.1772 15.5518 89.3787 16.2186 89.3787 16.9008C89.3798 17.3538 89.2912 17.8027 89.1191 18.2214C88.9464 18.6402 88.6937 19.0207 88.3742 19.3411C88.0553 19.6616 87.676 19.9156 87.2586 20.0886C86.8419 20.2617 86.3946 20.3504 85.9433 20.3497Z" fill="black"/>
<path id="Vector_4" d="M56.0993 18.7177L52.8787 10.0654H49.0755L54.2591 23.7362H58.032L63.1231 10.0654H59.3199L56.0993 18.7177Z" fill="black"/>
<path id="Vector_5" d="M75.0851 6.43213H71.4661V10.065H69.35V13.3291H71.4661V19.1485C71.4661 22.443 73.2759 23.8589 75.8213 23.8589C76.6848 23.8715 77.5413 23.7036 78.3369 23.3661V19.9797C77.904 20.1399 77.4475 20.2248 76.9864 20.2307C75.8875 20.2307 75.0851 19.7995 75.0851 18.3219V13.3291H78.3369V10.065H75.0851V6.43213Z" fill="black"/>
<path id="Vector_6" d="M66.0983 9.08036C67.5552 9.08036 68.7364 7.89477 68.7364 6.43227C68.7364 4.96977 67.5552 3.78418 66.0983 3.78418C64.6413 3.78418 63.4601 4.96977 63.4601 6.43227C63.4601 7.89477 64.6413 9.08036 66.0983 9.08036Z" fill="black"/>
<path id="Vector_7" d="M67.908 10.0654H64.2891V23.7362H67.908V10.0654Z" fill="black"/>
<path id="Vector_8" d="M14.0783 25.6758C17.9746 25.6758 21.1332 22.5051 21.1332 18.594C21.1332 14.6828 17.9746 11.5122 14.0783 11.5122C10.182 11.5122 7.02338 14.6828 7.02338 18.594C7.02338 22.5051 10.182 25.6758 14.0783 25.6758Z" fill="#04E061"/>
<path id="Vector_9" d="M26.3169 24.7826C28.6713 24.7826 30.5799 22.8667 30.5799 20.5033C30.5799 18.14 28.6713 16.2241 26.3169 16.2241C23.9625 16.2241 22.0538 18.14 22.0538 20.5033C22.0538 22.8667 23.9625 24.7826 26.3169 24.7826Z" fill="#FF4053"/>
<path id="Vector_10" d="M15.4276 10.5892C16.8846 10.5892 18.0657 9.40356 18.0657 7.94106C18.0657 6.47856 16.8846 5.29297 15.4276 5.29297C13.9706 5.29297 12.7896 6.47856 12.7896 7.94106C12.7896 9.40356 13.9706 10.5892 15.4276 10.5892Z" fill="#965EEB"/>
<path id="Vector_11" d="M24.6607 15.2997C27.8286 15.2997 30.3967 12.7219 30.3967 9.54196C30.3967 6.36202 27.8286 3.78418 24.6607 3.78418C21.4928 3.78418 18.9248 6.36202 18.9248 9.54196C18.9248 12.7219 21.4928 15.2997 24.6607 15.2997Z" fill="#00AAFF"/>
</g>
</g>
</g>
</g>
<defs>
<clipPath id="clip0_34_562">
<rect width="100.73" height="25.7183" fill="white"/>
</clipPath>
</defs>
</svg>
