<svg width="101" height="42" viewBox="-8 0 101 42" fill="none" xmlns="http://www.w3.org/2000/svg">
<g id="yandex_50">
<g id="Group">
<path id="Vector" d="M74.8 22.5402C76.1883 22.5402 77.18 22.2882 77.9166 21.7562V19.3202C77.1516 19.8242 76.2733 20.1602 74.97 20.1602C72.8166 20.1602 71.91 18.5362 71.91 15.9042C71.91 13.1602 72.9866 11.7602 74.97 11.7602C76.1316 11.7602 77.2933 12.1522 77.86 12.5442V9.9962C77.2366 9.6602 76.1033 9.4082 74.6016 9.4082C70.7483 9.4082 68.7366 12.1522 68.7366 15.9602C68.7933 20.2162 70.7483 22.5402 74.8 22.5402ZM55.9583 21.4202V18.9842C55.0516 19.6002 53.4366 20.1602 51.9916 20.1602C49.7816 20.1602 48.96 19.1242 48.8183 17.0242H56.1V15.4282C56.1 11.0322 54.145 9.4082 51.1416 9.4082C47.4583 9.4082 45.7016 12.1802 45.7016 15.9882C45.7016 20.3842 47.9116 22.4842 51.7083 22.4842C53.635 22.5402 55.0516 22.0362 55.9583 21.4202ZM28.3333 9.6882V14.6722H24.31V9.6882H21.3066V22.2882H24.3383V17.0522H28.3333V22.2882H31.365V9.6882H28.3333ZM44.965 19.9082H43.605V9.6882H34.8216V10.7522C34.8216 13.8322 34.6233 17.8082 33.575 19.9082H32.6116V25.2002H35.3883V22.2882H42.1316V25.1442H44.9083L44.965 19.9082ZM65.5633 22.2882H68.9916L64.1466 15.5122L68.3966 9.6882H65.3366L61.0866 15.5122V9.6882H58.0833V22.2882H61.115V16.1002L65.5633 22.2882ZM51.0566 11.7882C52.53 11.7882 53.0116 12.9922 53.0116 14.5882V14.8402H48.8183C48.9033 12.8522 49.64 11.7882 51.0566 11.7882ZM40.6016 19.9082H36.3516C37.1733 18.0322 37.4283 14.5602 37.4283 12.4042V12.0402H40.6016V19.9082Z" fill="#020203"/>
<path id="Vector_2" d="M18.7566 22.2881H15.6966V7.25207H14.3366C11.815 7.25207 10.5116 8.48407 10.5116 10.3601C10.5116 12.4601 11.4183 13.4401 13.2883 14.6721L14.8466 15.7081L10.3983 22.2881H7.08331L11.1066 16.4081C8.78331 14.7841 7.47998 13.1881 7.47998 10.5001C7.47998 7.16807 9.83165 4.87207 14.3083 4.87207H18.785V22.2881H18.7566Z" fill="#E8452A"/>
</g>
<path id="Vector_3" d="M60.5766 26.6841L62.3616 30.2401L66.3566 30.8281L63.4666 33.5721L64.1466 37.4921L60.5766 35.6441L57.0066 37.4921L57.6866 33.5721L54.825 30.8281L58.7916 30.2401L60.5766 26.6841Z" fill="#FFC915"/>
<path id="Vector_4" d="M13.0617 26.6841L14.8467 30.2401L18.8417 30.8281L15.9517 33.5721L16.6317 37.4921L13.0617 35.6441L9.49166 37.4921L10.2 33.5721L7.31 30.8281L11.305 30.2401L13.0617 26.6841Z" fill="#FFC915"/>
<path id="Vector_5" d="M24.9616 26.6841L26.7183 30.2401L30.7133 30.8281L27.8233 33.5721L28.5033 37.4921L24.9616 35.6441L21.3916 37.4921L22.0716 33.5721L19.1816 30.8281L23.1483 30.2401L24.9616 26.6841Z" fill="#FFC915"/>
<path id="Vector_6" d="M36.8333 26.6841L38.59 30.2401L42.585 30.8281L39.695 33.5721L40.4033 37.4921L36.8333 35.6441L33.2633 37.4921L33.9433 33.5721L31.0817 30.8281L35.0483 30.2401L36.8333 26.6841Z" fill="#FFC915"/>
<path id="Vector_7" d="M48.705 26.6841L50.49 30.2401L54.4567 30.8281L51.5951 33.5721L52.2467 37.4921L48.705 35.6441L45.135 37.4921L45.815 33.5721L42.925 30.8281L46.9201 30.2401L48.705 26.6841Z" fill="#FFC915"/>
<g id="Group_2">
<path id="Vector_8" d="M71.655 29.7078H69.1334L68.8784 31.3878C69.02 31.3598 69.1617 31.3598 69.4167 31.3598C69.9267 31.3598 70.4367 31.4718 70.8334 31.7238C71.3434 32.0038 71.7684 32.5918 71.7684 33.4038C71.7684 34.6918 70.7484 35.6438 69.3034 35.6438C68.5667 35.6438 67.9717 35.4478 67.66 35.2518L67.8867 34.5798C68.17 34.7478 68.7084 34.9438 69.3034 34.9438C70.1534 34.9438 70.8617 34.4118 70.8617 33.5158C70.8617 32.6758 70.2667 32.0598 68.9634 32.0598C68.595 32.0598 68.2834 32.0878 68.0567 32.1438L68.4817 29.0078H71.655V29.7078Z" fill="black"/>
<path id="Vector_9" d="M72.6184 36.7358C72.8451 36.1478 73.1284 35.0558 73.2417 34.3278L74.2334 34.2158C74.0067 35.0838 73.5534 36.2038 73.2701 36.6518L72.6184 36.7358Z" fill="black"/>
<path id="Vector_10" d="M79.4468 32.1718C79.4468 34.4118 78.5968 35.6158 77.1518 35.6158C75.8484 35.6158 74.9701 34.4118 74.9701 32.2558C74.9701 30.0718 75.9334 28.8398 77.2651 28.8398C78.6534 28.8398 79.4468 30.0718 79.4468 32.1718ZM75.8484 32.2558C75.8484 33.9638 76.3868 34.9158 77.2084 34.9158C78.1151 34.9158 78.5684 33.8518 78.5684 32.1718C78.5684 30.5478 78.1434 29.5118 77.2084 29.5118C76.4151 29.5398 75.8484 30.4638 75.8484 32.2558Z" fill="black"/>
</g>
</g>
</svg>
