<svg width="218" height="32" viewBox="0 0 218 32" fill="none" xmlns="http://www.w3.org/2000/svg">
<path d="M44 27.6359V4.29793H48.3564L56.9677 19.6579H55.8196L64.3972 4.29793H68.686V27.6359H63.9244V12.1434H64.6673L57.7782 24.1269H54.8402L47.9173 12.1103H48.7278V27.6359H44Z" fill="#1E1E1E"/>
<path d="M78.6812 28C77.4654 28 76.3735 27.7683 75.4055 27.3048C74.4374 26.8414 73.6832 26.2124 73.1429 25.4179C72.6025 24.6234 72.3324 23.7297 72.3324 22.7366C72.3324 21.5448 72.6476 20.6069 73.2779 19.9228C73.9083 19.2166 74.9327 18.72 76.351 18.4331C77.7694 18.1241 79.6493 17.9697 81.9907 17.9697H83.7805V20.5517H82.0244C81.1464 20.5517 80.4035 20.5848 79.7956 20.651C79.2102 20.7172 78.7262 20.8386 78.3435 21.0152C77.9607 21.1697 77.6793 21.3683 77.4992 21.611C77.3416 21.8538 77.2628 22.1628 77.2628 22.5379C77.2628 23.1559 77.4767 23.6634 77.9045 24.0607C78.3547 24.4579 78.9964 24.6566 79.8294 24.6566C80.4823 24.6566 81.0563 24.5131 81.5516 24.2262C82.0695 23.9172 82.4747 23.509 82.7674 23.0014C83.06 22.4717 83.2064 21.8759 83.2064 21.2138V17.4069C83.2064 16.4359 82.9812 15.7517 82.531 15.3545C82.0807 14.9352 81.3152 14.7255 80.2346 14.7255C79.3341 14.7255 78.3772 14.869 77.3641 15.1559C76.3735 15.4207 75.383 15.829 74.3924 16.3807L73.0078 13.0372C73.5931 12.64 74.3023 12.2979 75.1353 12.011C75.9908 11.7021 76.8801 11.4703 77.8032 11.3159C78.7262 11.1393 79.6042 11.051 80.4372 11.051C82.1708 11.051 83.5891 11.3048 84.6923 11.8124C85.8179 12.2979 86.6622 13.0593 87.225 14.0966C87.7879 15.1117 88.0693 16.4248 88.0693 18.0359V27.6359H83.3077V24.3586H83.5441C83.409 25.109 83.1163 25.76 82.6661 26.3117C82.2383 26.8414 81.6867 27.2607 81.0113 27.5697C80.3359 27.8566 79.5592 28 78.6812 28Z" fill="#1E1E1E"/>
<path d="M98.222 28C97.2539 28 96.3196 27.9228 95.419 27.7683C94.5185 27.6138 93.6968 27.4041 92.9538 27.1393C92.2109 26.8745 91.558 26.5434 90.9952 26.1462L92.2109 22.9021C92.7737 23.2331 93.3816 23.531 94.0345 23.7959C94.7099 24.0386 95.4078 24.2262 96.1282 24.3586C96.8486 24.491 97.5578 24.5572 98.2557 24.5572C99.2238 24.5572 99.9217 24.4138 100.349 24.1269C100.8 23.8179 101.025 23.4207 101.025 22.9352C101.025 22.4938 100.879 22.1628 100.586 21.9421C100.293 21.7214 99.8654 21.5669 99.3026 21.4786L95.7567 20.8497C94.3609 20.6069 93.2803 20.1103 92.5148 19.36C91.7719 18.5876 91.4004 17.6055 91.4004 16.4138C91.4004 15.3103 91.7156 14.3614 92.346 13.5669C92.9763 12.7503 93.8431 12.1324 94.9463 11.7131C96.0719 11.2717 97.3439 11.051 98.7623 11.051C99.5728 11.051 100.361 11.1172 101.126 11.2497C101.892 11.3821 102.612 11.5807 103.287 11.8455C103.985 12.1103 104.605 12.4634 105.145 12.9048L103.862 16.1159C103.434 15.7848 102.927 15.4979 102.342 15.2552C101.757 15.0124 101.16 14.8248 100.552 14.6924C99.9442 14.5379 99.3702 14.4607 98.8298 14.4607C97.8167 14.4607 97.085 14.6262 96.6348 14.9572C96.1845 15.2662 95.9594 15.6634 95.9594 16.149C95.9594 16.5241 96.0832 16.8441 96.3308 17.109C96.601 17.3517 97.0062 17.5172 97.5466 17.6055L101.092 18.2345C102.556 18.4772 103.67 18.9628 104.436 19.691C105.201 20.3972 105.584 21.3683 105.584 22.6041C105.584 23.7297 105.28 24.7007 104.672 25.5172C104.064 26.3117 103.209 26.9297 102.106 27.371C101.002 27.7903 99.7079 28 98.222 28Z" fill="#1E1E1E"/>
<path d="M116.468 28C114.104 28 112.348 27.4372 111.2 26.3117C110.052 25.1862 109.478 23.531 109.478 21.3462V15.1228H106.337V11.3821H109.478V6.61517H114.577V11.3821H119.474V15.1228H114.577V21.1476C114.577 22.0745 114.791 22.7697 115.219 23.2331C115.669 23.6966 116.378 23.9283 117.346 23.9283C117.639 23.9283 117.943 23.8952 118.258 23.829C118.596 23.7628 118.956 23.6745 119.339 23.5641L120.082 27.2055C119.609 27.4483 119.046 27.6359 118.393 27.7683C117.74 27.9228 117.099 28 116.468 28Z" fill="#1E1E1E"/>
<path d="M130.429 28C128.471 28 126.782 27.6579 125.364 26.9738C123.968 26.2676 122.887 25.2855 122.122 24.0276C121.379 22.7476 121.007 21.2469 121.007 19.5255C121.007 17.8483 121.368 16.3807 122.088 15.1228C122.808 13.8428 123.81 12.8497 125.094 12.1434C126.399 11.4152 127.874 11.051 129.517 11.051C131.138 11.051 132.534 11.3931 133.705 12.0772C134.876 12.7393 135.776 13.6883 136.407 14.9241C137.059 16.16 137.386 17.6276 137.386 19.3269V20.5848H125.195V18.0028H133.705L133.165 18.4662C133.165 17.12 132.861 16.1048 132.253 15.4207C131.667 14.7145 130.823 14.3614 129.72 14.3614C128.887 14.3614 128.178 14.549 127.593 14.9241C127.007 15.2993 126.557 15.84 126.242 16.5462C125.927 17.2524 125.769 18.1021 125.769 19.0952V19.36C125.769 20.4855 125.938 21.4124 126.275 22.1407C126.636 22.8469 127.165 23.3766 127.863 23.7297C128.583 24.0828 129.472 24.2593 130.531 24.2593C131.431 24.2593 132.343 24.1269 133.266 23.8621C134.189 23.5972 135.022 23.189 135.765 22.6372L137.116 25.9807C136.283 26.5986 135.258 27.0952 134.043 27.4703C132.849 27.8234 131.645 28 130.429 28Z" fill="#1E1E1E"/>
<path d="M140.352 27.6359V11.3821H145.35V15.3545H145.012C145.282 14.0303 145.868 13.0152 146.768 12.309C147.691 11.5807 148.907 11.1614 150.415 11.051L151.901 10.9517L152.205 15.1559L149.335 15.4538C148.051 15.5641 147.095 15.9283 146.464 16.5462C145.856 17.1641 145.552 18.0579 145.552 19.2276V27.6359H140.352Z" fill="#1E1E1E"/>
<path d="M162.948 27.9338C161.71 27.9338 160.539 27.8234 159.436 27.6028C158.355 27.3821 157.353 27.0731 156.43 26.6759C155.53 26.2565 154.708 25.749 153.965 25.1531L154.944 22.9683C155.71 23.52 156.486 23.9945 157.274 24.3917C158.085 24.7669 158.952 25.0538 159.875 25.2524C160.82 25.429 161.845 25.5172 162.948 25.5172C164.974 25.5172 166.471 25.1531 167.439 24.4248C168.43 23.6745 168.925 22.6924 168.925 21.4786C168.925 20.8386 168.768 20.2869 168.452 19.8234C168.16 19.36 167.664 18.9628 166.966 18.6317C166.291 18.3007 165.402 18.0248 164.299 17.8041L160.786 17.109C158.67 16.6676 157.083 15.9503 156.025 14.9572C154.989 13.9421 154.471 12.5959 154.471 10.9186C154.471 9.52828 154.832 8.31448 155.552 7.27724C156.295 6.24 157.319 5.43448 158.625 4.86069C159.953 4.2869 161.462 4 163.15 4C164.231 4 165.255 4.11034 166.223 4.33103C167.192 4.55172 168.081 4.88276 168.891 5.32414C169.724 5.74345 170.456 6.26207 171.086 6.88L170.107 8.99862C169.094 8.09379 168.025 7.44276 166.899 7.04552C165.773 6.62621 164.512 6.41655 163.117 6.41655C161.923 6.41655 160.888 6.5931 160.01 6.94621C159.154 7.29931 158.479 7.81793 157.984 8.50207C157.511 9.16414 157.274 9.93655 157.274 10.8193C157.274 11.8786 157.601 12.7172 158.254 13.3352C158.929 13.9531 160.021 14.4055 161.529 14.6924L165.042 15.4207C167.315 15.8841 168.993 16.5903 170.073 17.5393C171.176 18.4662 171.728 19.7352 171.728 21.3462C171.728 22.6262 171.368 23.7738 170.647 24.789C169.949 25.7821 168.936 26.5545 167.608 27.1062C166.302 27.6579 164.749 27.9338 162.948 27.9338Z" fill="#1E1E1E"/>
<path d="M175.653 27.6359V4.29793H178.389V18.6979H178.456L186.054 11.5476H189.533L180.516 20.0221V18.5655L190.242 27.6359H186.764L178.456 20.0883H178.389V27.6359H175.653Z" fill="#1E1E1E"/>
<path d="M198.931 27.9338C197.333 27.9338 195.948 27.5917 194.777 26.9076C193.607 26.2234 192.695 25.2634 192.042 24.0276C191.412 22.7697 191.097 21.291 191.097 19.5917C191.097 17.8924 191.412 16.4248 192.042 15.189C192.695 13.931 193.607 12.96 194.777 12.2759C195.948 11.5917 197.333 11.2497 198.931 11.2497C200.53 11.2497 201.914 11.5917 203.085 12.2759C204.256 12.96 205.156 13.931 205.787 15.189C206.439 16.4248 206.766 17.8924 206.766 19.5917C206.766 21.291 206.439 22.7697 205.787 24.0276C205.156 25.2634 204.256 26.2234 203.085 26.9076C201.914 27.5917 200.53 27.9338 198.931 27.9338ZM198.931 25.7821C200.485 25.7821 201.712 25.2524 202.612 24.1931C203.535 23.1117 203.997 21.5669 203.997 19.5586C203.997 17.5724 203.535 16.0497 202.612 14.9903C201.712 13.931 200.485 13.4014 198.931 13.4014C197.4 13.4014 196.173 13.931 195.25 14.9903C194.327 16.0497 193.866 17.5724 193.866 19.5586C193.866 21.5669 194.327 23.1117 195.25 24.1931C196.173 25.2524 197.4 25.7821 198.931 25.7821Z" fill="#1E1E1E"/>
<path d="M215.906 27.9338C214.24 27.9338 212.98 27.4483 212.124 26.4772C211.291 25.5062 210.874 24.1159 210.874 22.3062V4.29793H213.61V22.1076C213.61 22.88 213.711 23.531 213.914 24.0607C214.139 24.5903 214.465 24.9876 214.893 25.2524C215.321 25.5172 215.85 25.6497 216.48 25.6497C216.751 25.6497 217.009 25.6386 217.257 25.6166C217.527 25.5724 217.775 25.5172 218 25.451L217.932 27.7021C217.572 27.7683 217.223 27.8234 216.886 27.8676C216.57 27.9117 216.244 27.9338 215.906 27.9338Z" fill="#1E1E1E"/>
<g clip-path="url(#clip0_2003_39)">
<path d="M36.5818 3.12723C36.5818 0.581773 34.5455 -1.45459 32 -1.45459H18.5L15.8818 3.70905C15.7364 3.99996 15.8091 4.36359 16.1 4.50905L21.0455 7.99996C21.3364 8.21814 21.4091 8.6545 21.1909 8.94541L15.4455 15.3454C15.2273 15.5636 15.2273 15.9272 15.4455 16.2181L18.6455 19.6363C18.8636 19.8545 18.8636 20.1454 18.7182 20.4363L16.3636 27.9272C16 28.509 15.0545 28.1454 15.2 27.4909L16.5091 21.1636C16.5818 20.9454 16.5091 20.7272 16.2909 20.5818L11.7091 16.2909C11.4909 16.0727 11.4182 15.7818 11.6364 15.4909L15.4909 9.52723C15.7091 9.23632 15.5636 8.87268 15.3455 8.6545L9.96364 5.09086C9.74546 4.94541 9.6 4.6545 9.67273 4.43632L10.9818 -1.45459H1.67273C-0.872724 -1.45459 -2.90909 0.581773 -2.90909 3.12723V30.2545C-2.90909 32.8 -0.872724 34.8363 1.67273 34.8363H24C24.7273 34.8363 36 36.509 36.5091 35.6363V13.0181V3.12723H36.5818Z" fill="#2779E5"/>
</g>
<defs>
<clipPath id="clip0_2003_39">
<rect width="32" height="32" rx="6" fill="white"/>
</clipPath>
</defs>
</svg>
